<?xml version="1.0" ?>
<!-- Uploaded to: SVG Repo, www.svgrepo.com, Generator: SVG Repo Mixer Tools -->
<svg width="800px" height="800px" viewBox="0 0 120 120" id="Layer_1" version="1.1" xml:space="preserve" xmlns="http://www.w3.org/2000/svg" xmlns:xlink="http://www.w3.org/1999/xlink">
<style type="text/css">
	.st0{fill:#FF5462;}
	.st1{opacity:0.1;}
	.st2{fill:#C44151;}
	.st3{fill:#FFFFFF;}
</style>
<g>
<path class="st0" d="M100.4,97.2H19.6c-2.3,0-4.1-1.8-4.1-4.1V57.5c0-2.3,1.8-4.1,4.1-4.1h80.7c2.3,0,4.1,1.8,4.1,4.1v35.6   C104.5,95.3,102.6,97.2,100.4,97.2z"/>
<path class="st1" d="M102.5,96.2h-80c-2.5,0-4.5-2-4.5-4.5V56.8c0-1.4,0.7-2.6,1.7-3.5c-2.3,0.1-4.2,2.1-4.2,4.5v34.9   c0,2.5,2,4.5,4.5,4.5h80c1.1,0,2.1-0.4,2.8-1C102.7,96.2,102.6,96.2,102.5,96.2z"/>
<path class="st2" d="M57,33.5L37.1,53.4h4.6L60,35.1l18.3,18.3h4.6L63,33.5c1.6-1,2.8-2.8,2.8-4.9c0-3.2-2.6-5.8-5.8-5.8   c-3.2,0-5.8,2.6-5.8,5.8C54.2,30.7,55.3,32.5,57,33.5z M60,26.1c1.4,0,2.5,1.1,2.5,2.5s-1.1,2.5-2.5,2.5c-1.4,0-2.5-1.1-2.5-2.5   S58.6,26.1,60,26.1z"/>
<g>
<path class="st3" d="M28.9,73c0.2-0.3,0.5-0.5,0.9-0.6c0.3-0.1,0.7-0.2,1.1-0.2c0.5,0,1,0.1,1.4,0.4c0.4,0.3,0.8,0.6,1.1,1.1    l2.5-2.4c-0.6-0.8-1.3-1.4-2.2-1.9c-0.9-0.4-1.9-0.7-3-0.7c-0.9,0-1.8,0.2-2.6,0.5c-0.8,0.3-1.5,0.8-2.1,1.4    c-0.6,0.6-1,1.3-1.4,2.1c-0.3,0.8-0.5,1.7-0.5,2.7c0,1,0.2,1.9,0.5,2.7c0.3,0.8,0.8,1.5,1.4,2.1c0.6,0.6,1.3,1,2.1,1.4    c0.8,0.3,1.7,0.5,2.6,0.5c1.1,0,2.2-0.2,3-0.7c0.9-0.4,1.6-1.1,2.2-1.9L33.5,77c-0.3,0.5-0.7,0.8-1.1,1.1    c-0.4,0.3-0.9,0.4-1.4,0.4c-0.4,0-0.8-0.1-1.1-0.2c-0.3-0.1-0.6-0.4-0.9-0.6c-0.2-0.3-0.4-0.6-0.6-1c-0.1-0.4-0.2-0.8-0.2-1.3    c0-0.5,0.1-0.9,0.2-1.3C28.5,73.6,28.7,73.2,28.9,73z"/>
<polygon class="st3" points="41,68.9 37.1,68.9 37.1,81.6 46.3,81.6 46.3,78.3 41,78.3   "/>
<path class="st3" d="M58,70.5c-0.6-0.6-1.3-1.1-2.1-1.4c-0.8-0.3-1.7-0.5-2.6-0.5c-0.9,0-1.8,0.2-2.6,0.5    c-0.8,0.3-1.5,0.8-2.1,1.4c-0.6,0.6-1,1.3-1.4,2.1c-0.3,0.8-0.5,1.7-0.5,2.6c0,1,0.2,1.8,0.5,2.6c0.3,0.8,0.8,1.5,1.4,2.1    c0.6,0.6,1.3,1.1,2.1,1.4c0.8,0.3,1.7,0.5,2.6,0.5c0.9,0,1.8-0.2,2.6-0.5c0.8-0.3,1.5-0.8,2.1-1.4c0.6-0.6,1-1.3,1.4-2.1    c0.3-0.8,0.5-1.7,0.5-2.6c0-1-0.2-1.8-0.5-2.6C59.1,71.8,58.6,71.1,58,70.5z M55.7,76.6c-0.1,0.4-0.3,0.7-0.6,1    c-0.2,0.3-0.5,0.5-0.8,0.6c-0.3,0.1-0.7,0.2-1,0.2s-0.7-0.1-1-0.2c-0.3-0.1-0.6-0.4-0.8-0.6c-0.2-0.3-0.4-0.6-0.6-1    c-0.1-0.4-0.2-0.8-0.2-1.3s0.1-0.9,0.2-1.3c0.1-0.4,0.3-0.7,0.6-1c0.2-0.3,0.5-0.5,0.8-0.6c0.3-0.1,0.7-0.2,1-0.2s0.7,0.1,1,0.2    c0.3,0.1,0.6,0.4,0.8,0.6c0.2,0.3,0.4,0.6,0.6,1s0.2,0.8,0.2,1.3S55.8,76.2,55.7,76.6z"/>
<path class="st3" d="M69.8,74.9c-0.4-0.3-0.8-0.5-1.3-0.7c-0.5-0.2-0.9-0.3-1.4-0.4c-0.5-0.1-0.9-0.2-1.3-0.3    c-0.4-0.1-0.7-0.2-0.9-0.3c-0.2-0.1-0.3-0.3-0.3-0.5c0-0.1,0-0.3,0.1-0.4s0.3-0.2,0.5-0.3s0.5-0.1,0.9-0.1c0.5,0,1,0.1,1.6,0.2    c0.5,0.2,1.1,0.4,1.7,0.7l1.2-3.1c-0.6-0.4-1.3-0.7-2.1-0.8c-0.8-0.2-1.5-0.3-2.3-0.3c-1.2,0-2.2,0.2-3,0.6    c-0.8,0.4-1.4,0.9-1.8,1.5c-0.4,0.6-0.6,1.4-0.6,2.1c0,0.7,0.1,1.2,0.4,1.7c0.2,0.5,0.5,0.8,0.9,1.1c0.4,0.3,0.8,0.5,1.3,0.7    c0.5,0.2,0.9,0.3,1.4,0.4c0.5,0.1,0.9,0.2,1.3,0.3c0.4,0.1,0.7,0.2,0.9,0.3c0.2,0.1,0.3,0.3,0.3,0.5c0,0.1,0,0.3-0.1,0.4    c-0.1,0.1-0.3,0.2-0.5,0.2c-0.2,0.1-0.5,0.1-0.9,0.1c-0.6,0-1.3-0.1-2-0.3c-0.7-0.2-1.3-0.5-1.9-0.8l-1.3,3.1    c0.6,0.4,1.3,0.7,2.2,0.9c0.9,0.2,1.9,0.4,2.8,0.4c1.2,0,2.2-0.2,3-0.6c0.8-0.4,1.4-0.9,1.8-1.6c0.4-0.6,0.6-1.4,0.6-2.1    c0-0.7-0.1-1.2-0.4-1.7S70.2,75.2,69.8,74.9z"/>
<polygon class="st3" points="76.1,76.7 81,76.7 81,73.6 76.1,73.6 76.1,72.2 81.7,72.2 81.7,68.9 72.2,68.9 72.2,81.6 81.9,81.6     81.9,78.4 76.1,78.4   "/>
<path class="st3" d="M94.9,71.9c-0.6-0.9-1.3-1.7-2.3-2.2c-1-0.5-2.1-0.8-3.4-0.8h-5.7v12.7h5.7c1.3,0,2.4-0.3,3.4-0.8    c1-0.5,1.8-1.2,2.3-2.2c0.6-0.9,0.8-2.1,0.8-3.4C95.8,74,95.5,72.8,94.9,71.9z M91.5,76.9c-0.2,0.5-0.6,0.8-1,1    c-0.4,0.2-0.9,0.3-1.5,0.3h-1.6v-6H89c0.6,0,1,0.1,1.5,0.3c0.4,0.2,0.7,0.6,1,1c0.2,0.4,0.4,1,0.4,1.6    C91.8,75.9,91.7,76.5,91.5,76.9z"/>
</g>
</g>
</svg>