<?xml version="1.0" encoding="iso-8859-1"?>
<!-- Uploaded to: SVG Repo, www.svgrepo.com, Generator: SVG Repo Mixer Tools -->
<svg version="1.1" id="Layer_1" xmlns="http://www.w3.org/2000/svg" xmlns:xlink="http://www.w3.org/1999/xlink" 
	 viewBox="0 0 512 512" xml:space="preserve">
<g>
	
		<rect x="193.857" y="95.902" transform="matrix(-0.7071 -0.7071 0.7071 -0.7071 234.6735 414.1124)" style="fill:#666666;" width="18.49" height="125.104"/>
	
		<rect x="247.076" y="149.209" transform="matrix(-0.7071 -0.7071 0.7071 -0.7071 416.523 489.4382)" style="fill:#666666;" width="125.104" height="18.49"/>
</g>
<circle style="fill:#F7B239;" cx="256.003" cy="109.907" r="23.458"/>
<path style="fill:#9AD14B;" d="M485.252,425.551H26.748C11.975,425.551,0,413.575,0,398.803V224.446
	c0-14.772,11.975-26.748,26.748-26.748h458.504c14.772,0,26.748,11.975,26.748,26.748v174.358
	C512,413.575,500.025,425.551,485.252,425.551z"/>
<g>
	<path style="fill:#F2F2F2;" d="M302.936,258.544c-5.106,0-9.245,4.139-9.245,9.245v87.671c0,5.106,4.139,9.245,9.245,9.245
		c5.106,0,9.245-4.139,9.245-9.245v-87.671C312.181,262.683,308.042,258.544,302.936,258.544z"/>
	<path style="fill:#F2F2F2;" d="M256.955,260.125c-4.232-2.856-9.979-1.741-12.835,2.491l-21.92,32.48l-21.92-32.48
		c-2.857-4.234-8.603-5.349-12.835-2.491c-4.233,2.856-5.347,8.603-2.491,12.835l26.093,38.664l-26.093,38.664
		c-2.856,4.232-1.741,9.979,2.491,12.835c1.585,1.07,3.384,1.583,5.162,1.583c2.97,0,5.886-1.429,7.672-4.075l21.92-32.48
		l21.92,32.48c1.786,2.647,4.701,4.075,7.672,4.075c1.779,0,3.577-0.513,5.162-1.583c4.233-2.856,5.347-8.603,2.491-12.835
		l-26.093-38.664l26.093-38.664C262.303,268.728,261.188,262.981,256.955,260.125z"/>
	<path style="fill:#F2F2F2;" d="M155.679,277.034c5.106,0,9.245-4.139,9.245-9.245c0-5.106-4.139-9.245-9.245-9.245H103.83
		c-5.106,0-9.245,4.139-9.245,9.245v87.671c0,5.106,4.139,9.245,9.245,9.245h51.849c5.106,0,9.245-4.139,9.245-9.245
		c0-5.106-4.139-9.245-9.245-9.245h-42.604v-24.402h16.679c5.106,0,9.245-4.139,9.245-9.245c0-5.106-4.139-9.245-9.245-9.245
		h-16.679v-26.288H155.679z"/>
	<path style="fill:#F2F2F2;" d="M408.17,258.544h-63.789c-5.106,0-9.245,4.139-9.245,9.245c0,5.106,4.139,9.245,9.245,9.245h22.649
		v78.426c0,5.106,4.139,9.245,9.245,9.245s9.245-4.139,9.245-9.245v-78.426h22.649c5.106,0,9.245-4.139,9.245-9.245
		C417.415,262.683,413.276,258.544,408.17,258.544z"/>
</g>
</svg>