<?xml version="1.0" encoding="iso-8859-1"?>
<!-- Uploaded to: SVG Repo, www.svgrepo.com, Generator: SVG Repo Mixer Tools -->
<svg height="800px" width="800px" version="1.1" id="Layer_1" xmlns="http://www.w3.org/2000/svg" xmlns:xlink="http://www.w3.org/1999/xlink" 
	 viewBox="0 0 503.467 503.467" xml:space="preserve">
<g transform="translate(1 1)">
	<path style="fill:#E4F2DE;" d="M498.2,37.4v221.867c0,18.773-15.36,34.133-34.133,34.133H242.2H37.4
		c-18.773,0-34.133-15.36-34.133-34.133V37.4c0-18.773,15.36-34.133,34.133-34.133h426.667C482.84,3.267,498.2,18.627,498.2,37.4z"
		/>
	<path style="fill:#50DD8E;" d="M361.667,344.6v25.6c0,0,0,25.6-17.067,42.667c-17.067,17.067-42.667,17.067-42.667,17.067h-25.6
		v-25.6c0,0,0-25.6,17.067-42.667c17.067-17.067,42.667-17.067,42.667-17.067H361.667z M208.067,455.533v25.6h-25.6
		c0,0-25.6,0-42.667-17.067C122.733,447,122.733,421.4,122.733,421.4v-25.6h25.6c0,0,25.6,0,42.667,17.067
		C208.067,429.933,208.067,455.533,208.067,455.533z"/>
</g>
<path style="fill:#51565F;" d="M243.2,503.467c-2.56,0-4.267-1.707-4.267-4.267V298.667H38.4c-21.333,0-38.4-17.067-38.4-38.4V38.4
	C0,17.067,17.067,0,38.4,0h426.667c21.333,0,38.4,17.067,38.4,38.4v221.867c0,21.333-17.067,38.4-38.4,38.4H277.333
	c-2.56,0-4.267-1.707-4.267-4.267c0-2.56,1.707-4.267,4.267-4.267h187.733c16.213,0,29.867-13.653,29.867-29.867V38.4
	c0-16.213-13.653-29.867-29.867-29.867H38.4C22.187,8.533,8.533,22.187,8.533,38.4v221.867c0,16.213,13.653,29.867,29.867,29.867
	h204.8c2.56,0,4.267,1.707,4.267,4.267v204.8C247.467,501.76,245.76,503.467,243.2,503.467z M209.067,486.4h-25.6
	c-0.853,0-27.307,0-46.08-17.92c-18.773-17.92-17.92-44.373-17.92-46.08v-25.6c0-2.56,1.707-4.267,4.267-4.267h25.6
	c0.853,0,27.307,0,46.08,17.92c18.773,17.92,17.92,44.373,17.92,46.08v25.6C213.333,484.693,211.627,486.4,209.067,486.4z
	 M128,401.067V422.4c0,0,0,23.893,16.213,39.253c15.36,15.36,39.253,16.213,39.253,16.213H204.8v-21.333c0,0,0-23.893-16.213-39.253
	c-15.36-15.36-39.253-16.213-39.253-16.213H128z M302.933,435.2h-25.6c-2.56,0-4.267-1.707-4.267-4.267v-25.6
	c0-0.853,0-27.307,17.92-46.08c17.92-18.773,44.373-17.92,46.08-17.92h25.6c2.56,0,4.267,1.707,4.267,4.267v25.6
	c0,0.853,0,27.307-17.92,46.08C331.093,436.053,303.787,435.2,302.933,435.2z M281.6,426.667h21.333c0,0,23.893,0,39.253-16.213
	c15.36-15.36,16.213-39.253,16.213-39.253v-21.333h-21.333c0,0-23.893,0-39.253,16.213c-15.36,15.36-16.213,39.253-16.213,39.253
	V426.667z M413.867,264.533H89.6c-2.56,0-4.267-1.707-4.267-4.267c0-25.6-21.333-46.933-46.933-46.933
	c-2.56,0-4.267-1.707-4.267-4.267V89.6c0-2.56,1.707-4.267,4.267-4.267C64,85.333,85.333,64,85.333,38.4
	c0-2.56,1.707-4.267,4.267-4.267h324.267c2.56,0,4.267,1.707,4.267,4.267c0,25.6,21.333,46.933,46.933,46.933
	c2.56,0,4.267,1.707,4.267,4.267v119.467c0,2.56-1.707,4.267-4.267,4.267c-25.6,0-46.933,21.333-46.933,46.933
	C418.133,262.827,416.427,264.533,413.867,264.533z M93.867,256H409.6c1.707-27.307,23.893-48.64,51.2-51.2V93.867
	c-27.307-1.707-48.64-23.893-51.2-51.2H93.867c-1.707,27.307-23.893,48.64-51.2,51.2V204.8C69.973,207.36,91.307,228.693,93.867,256
	z M251.733,213.333c-2.56,0-4.267-1.707-4.267-4.267V204.8c-14.507-1.707-25.6-14.507-25.6-29.867c0-2.56,1.707-4.267,4.267-4.267
	s4.267,1.707,4.267,4.267c0,11.947,9.387,21.333,21.333,21.333c11.947,0,21.333-9.387,21.333-21.333
	c0-11.947-9.387-21.333-21.333-21.333c-16.213,0-29.867-13.653-29.867-29.867c0-15.36,11.093-27.307,25.6-29.867V89.6
	c0-2.56,1.707-4.267,4.267-4.267c2.56,0,4.267,1.707,4.267,4.267v4.267c14.507,1.707,25.6,14.507,25.6,29.867
	c0,2.56-1.707,4.267-4.267,4.267s-4.267-1.707-4.267-4.267c0-11.947-9.387-21.333-21.333-21.333
	c-11.947,0-21.333,9.387-21.333,21.333c0,11.947,9.387,21.333,21.333,21.333c16.213,0,29.867,13.653,29.867,29.867
	c0,15.36-11.093,27.307-25.6,29.867v4.267C256,211.627,254.293,213.333,251.733,213.333z"/>
</svg>