<?xml version="1.0" ?><!-- Uploaded to: SVG Repo, www.svgrepo.com, Generator: SVG Repo Mixer Tools -->
<svg width="800px" height="800px" viewBox="0 0 64 64" data-name="Layer 1" id="Layer_1" xmlns="http://www.w3.org/2000/svg"><defs><style>
      .cls-1 {
        fill: #e7ecef;
      }

      .cls-2 {
        fill: #8b8c89;
      }

      .cls-3 {
        fill: #bc6c25;
      }

      .cls-4 {
        fill: #a3cef1;
      }

      .cls-5 {
        fill: #dda15e;
      }

      .cls-6 {
        fill: #6096ba;
      }

      .cls-7 {
        fill: #274c77;
      }
    </style></defs><path class="cls-4" d="M30.86,28.86c.33-.23,.72-.36,1.14-.36,1.1,0,2,.9,2,2s-.9,2-2,2c-.36,0-.71-.1-1-.27v1.45c0,.34-.17,.64-.43,.83,3.23,3.09,7.61,4.99,12.43,4.99,9.94,0,18-8.06,18-18S52.94,3.5,43,3.5s-17.91,7.97-18,17.84c1.15,.5,2.19,1.21,3.07,2.09,1.44,1.44,2.45,3.32,2.79,5.43Z"/><path class="cls-5" d="M25.58,39.54l-3,1.29c-1.01,.43-2.15,.43-3.15,0l-3-1.29c-1.47-.63-2.42-2.08-2.42-3.68v-5.36c0-3.31,2.69-6,6-6h2c3.31,0,6,2.69,6,6v5.36c0,1.6-.95,3.05-2.42,3.68Z"/><path class="cls-7" d="M34.14,45.5c-1.82-1.85-4.35-3-7.14-3h-3c0,1.66-1.34,3-3,3s-3-1.34-3-3h-3c-5.52,0-10,4.48-10,10v7H27l4-14h3.14Z"/><path class="cls-5" d="M16,55.5h2c1.1,0,2,.9,2,2v2h-4v-4h0Z"/><path class="cls-7" d="M11,32.23c-.29,.17-.64,.27-1,.27-1.1,0-2-.9-2-2s.9-2,2-2c.42,0,.81,.13,1.14,.36"/><path class="cls-7" d="M31,32.23c.29,.17,.64,.27,1,.27,1.1,0,2-.9,2-2s-.9-2-2-2c-.42,0-.81,.13-1.14,.36"/><path class="cls-3" d="M18,40.21l1.42,.61c1.01,.44,2.15,.44,3.16,0l1.42-.61v2.29c0,1.66-1.34,3-3,3s-3-1.34-3-3v-2.29Z"/><polyline class="cls-2" points="27 59.5 31 45.5 53 45.5 49 59.5"/><path class="cls-7" d="M27.4,27.88h-.01c-.57-.23-1.23-.38-2.06-.38-4.33,0-4.33,4-8.67,4-1.13,0-1.97-.27-2.66-.67v-.33c0-3.31,2.69-6,6-6h2c2.37,0,4.42,1.38,5.39,3.38h.01Z"/><path class="cls-1" d="M28,35.1v-4.6c0-3.31-2.69-6-6-6h-2c-3.31,0-6,2.69-6,6v4h-2c-.55,0-1-.45-1-1v-3c0-5.52,4.48-10,10-10,2.76,0,5.26,1.12,7.07,2.93s2.93,4.31,2.93,7.07v3.18c0,.48-.34,.89-.8,.98l-2.2,.44Z"/><path class="cls-4" d="M40,51.5c.55,0,1,.45,1,1s-.45,1-1,1v-2Z"/><path class="cls-6" d="M21,59.5h-2v-2c0-.55-.45-1-1-1h-7c-.55,0-1-.45-1-1v-4c0-.27,.11-.52,.29-.71l2-2,1.41,1.41-1.71,1.71v2.59h6c1.65,0,3,1.35,3,3v2Z"/><rect class="cls-4" height="2" width="50" x="3" y="58.5"/><path class="cls-6" d="M37.02,38.47c-1.44-.5-2.78-1.18-4.02-2.01,4.82-3.22,8-8.72,8-14.96,0-1.1,.9-2,2-2s2,.9,2,2c0,6.83-3.11,12.93-7.99,16.98h.01Z"/><path class="cls-6" d="M47.39,38.95h0c-1.41,.36-2.88,.55-4.39,.55-.41,0-.82-.01-1.22-.04,4.48-4.66,7.22-10.99,7.22-17.96,0-3.31-2.69-6-6-6s-6,2.69-6,6-1.13,6.3-3.03,8.69c0,0,0,0,0,0h0c-.15-.97-.98-1.7-1.97-1.7-.42,0-.81,.13-1.14,.36-.05-.32-.11-.63-.2-.94,1.46-1.74,2.34-3.98,2.34-6.42,0-5.52,4.48-10,10-10s10,4.48,10,10c0,6.51-2.08,12.54-5.61,17.46"/><path class="cls-6" d="M28.5,23.89c.32-.73,.5-1.54,.5-2.39,0-7.73,6.27-14,14-14s14,6.27,14,14c0,5.14-1.14,10.02-3.18,14.38,4.36-3.28,7.18-8.5,7.18-14.38,0-9.94-8.06-18-18-18s-17.91,7.97-18,17.84c1.15,.5,2.19,1.21,3.07,2.09,.15,.15,.29,.3,.43,.46Z"/><path class="cls-7" d="M21,36.5h0c-.11-.54,.24-1.07,.78-1.18l8.22-1.64v-2.86c0-4.79-3.61-8.98-8.38-9.3-5.24-.35-9.62,3.81-9.62,8.98v3h2v2h-2c-1.1,0-2-.9-2-2v-2.68c0-5.72,4.24-10.74,9.94-11.27,6.54-.62,12.06,4.53,12.06,10.95v3.18c0,.95-.67,1.77-1.61,1.96l-8.22,1.64c-.54,.11-1.07-.24-1.18-.78Z"/></svg>