<?xml version="1.0" encoding="iso-8859-1"?>
<!-- Uploaded to: SVG Repo, www.svgrepo.com, Generator: SVG Repo Mixer Tools -->
<svg version="1.1" id="Layer_1" xmlns="http://www.w3.org/2000/svg" xmlns:xlink="http://www.w3.org/1999/xlink" 
	 viewBox="0 0 512 512" xml:space="preserve">
<path style="fill:#FF7D00;" d="M344,128c0,4,2.4,7.2,6.4,8c15.2,3.2,28.8,8.8,42.4,17.6c3.2,2.4,7.2,1.6,9.6-0.8l25.6-25.6
	l33.6,33.6l-24.8,25.6c-2.4,2.4-3.2,7.2-0.8,9.6c8,12.8,14.4,27.2,17.6,42.4c0.8,3.2,4,6.4,8,6.4H496v48h-36c-4,0-7.2,2.4-8,6.4
	c-3.2,15.2-9.6,28.8-17.6,42.4c-2.4,3.2-1.6,7.2,0.8,9.6l25.6,25.6l-33.6,33.6l-25.6-24.8c-2.4-2.4-6.4-3.2-9.6-0.8
	c-12.8,8-27.2,14.4-42.4,17.6c-3.2,0.8-6.4,4-6.4,8V444h-48v-24h24c4,0,8-4,8-8v-56c44.8-4,80-41.6,80-88s-35.2-83.2-80-88v-32
	c0-2.4-0.8-4-2.4-5.6L296,112.8V92h48V128z"/>
<path style="fill:#FF9900;" d="M304,436v-8h16c8.8,0,16-7.2,16-16v-49.6c46.4-8,80-47.2,80-94.4s-33.6-87.2-80-94.4V148
	c0-4-1.6-8-4.8-11.2L304,109.6V100h32v28c0,7.2,4.8,13.6,12,16c14.4,3.2,27.2,8.8,39.2,16.8c2.4,1.6,5.6,2.4,8.8,2.4l0,0
	c4,0,8-1.6,11.2-4.8l20-20l22.4,22.4L430.4,180c-5.6,5.6-6.4,13.6-2.4,20c8,12,13.6,25.6,16,39.2c1.6,7.2,8,12.8,16,12.8h28v32h-28
	c-7.2,0-13.6,4.8-16,12c-3.2,14.4-8.8,27.2-16.8,39.2c-4,6.4-3.2,14.4,2.4,20l20,20l-22.4,22.4L408,378.4c-3.2-3.2-7.2-4.8-11.2-4.8
	c-3.2,0-5.6,0.8-8.8,2.4c-12,8-25.6,13.6-40,16.8c-7.2,1.6-12.8,8-12.8,16V436H304z"/>
<g>
	<path style="fill:#FF7D00;" d="M438.6,344.4l0.1-0.2c9.6-16.4,15.2-29.9,18.2-44c0.4-2,1.9-2.4,3.1-2.4h41v-58h-39.4
		c-1.5,0-2.8-1.5-3.1-2.5c-3.1-14.8-9.3-29.6-18.2-43.9l-0.3-0.5l-0.3-0.3c-0.2-0.5,0.1-2,0.8-2.7l28.2-29.1L428,120.1l-29.1,29.1
		c-0.5,0.5-1.2,0.8-1.8,0.8c-0.4,0-0.9-0.1-1.3-0.4l-0.1-0.1l-0.1-0.1c-14.1-9.1-28.1-14.9-44.1-18.3c-2-0.4-2.4-1.9-2.4-3.1V87h-58
		v27.8l30.3,31.1c0.8,0.8,0.9,1.2,0.9,2.1v36.5l4.5,0.5c43.1,4.6,75.5,40.3,75.5,83c0,43.5-32.4,79.2-75.4,83l-4.6,0.4V412
		c0,1.2-1.8,3-3,3h-29v34h58v-38.6c0-1.5,1.5-2.8,2.5-3.1c14.8-3.1,29.6-9.3,43.9-18.2l0.2-0.1l0.2-0.1c0.4-0.3,0.8-0.4,1.3-0.4
		c0.6,0,1.3,0.3,1.9,0.8l29.1,28.2l40.6-40.6l-29.1-29.1c-0.6-0.6-1.3-1.8-0.3-3.1V344.4z"/>
	<rect x="11" y="127" style="fill:#FF7D00;" width="154" height="58"/>
</g>
<g>
	<path style="fill:#FF9900;" d="M152,143.2V168c0,1.6-1.6,3.2-3.2,3.2H27.2c-1.6,0.8-3.2-0.8-3.2-2.4V144c0-2.4,1.6-4,3.2-4H148
		C150.4,140,152,141.6,152,143.2z"/>
	<polygon style="fill:#FF9900;" points="235,67.1 235,145 312.9,145 	"/>
</g>
<path style="fill:#FFF8EF;" d="M232,151c-1.2,0-3-1.8-3-3V63H35v58h133c1.2,0,3,1.8,3,3v64c0,1.2-1.8,3-3,3H35v218h282V151H232z"/>
<g>
	<path style="fill:#D9CDC1;" d="M45.9,195l-10.4-2l-3,219l284-0.8v-6.8L107.6,385c-29.7-2.4-52.9-27.3-54.5-56.9L45.9,195z"/>
	<polygon style="fill:#D9CDC1;" points="40,68 40,116 42.4,116 	"/>
</g>
<path style="fill:#42210B;" d="M300.8,140L240,79.2V140H300.8z M392,268c0-36.8-28-67.2-64-71.2V340C364,335.2,392,304.8,392,268z
	 M496,292v-48h-36c-4,0-7.2-2.4-8-6.4c-3.2-15.2-9.6-28.8-17.6-42.4c-2.4-3.2-1.6-7.2,0.8-9.6L460,160l-33.6-33.6L400.8,152
	c-2.4,2.4-6.4,3.2-9.6,0.8c-12.8-8-27.2-14.4-42.4-17.6c-4-0.8-6.4-4-6.4-8V92h-48v20.8l29.6,29.6c1.6,1.6,2.4,3.2,2.4,5.6v32
	c44.8,4,80,41.6,80,88s-35.2,83.2-80,88v56c0,4-4,8-8,8h-24v24h48v-36c0-4,2.4-7.2,6.4-8c15.2-3.2,28.8-9.6,42.4-17.6
	c3.2-2.4,7.2-1.6,9.6,0.8l25.6,24.8l33.6-33.6l-25.6-25.6c-2.4-2.4-3.2-6.4-0.8-9.6c8-12.8,14.4-27.2,17.6-42.4c0.8-4,4-6.4,8-6.4
	H496V292z M280,420H32c-4,0-8-4-8-8V196H8c-4.8,0-8-4-8-8v-64c0-4,3.2-8,8-8h16V60c0-4.8,4-8,8-8h200c2.4,0,4,0.8,5.6,2.4L280,96.8
	V84c0-4.8,4-8,8-8h64c4,0,8,3.2,8,8v37.6c12,3.2,24,8,35.2,14.4l26.4-26.4c3.2-3.2,8-3.2,11.2,0l45.6,45.6c1.6,1.6,2.4,3.2,2.4,5.6
	c0,2.4-0.8,4-2.4,5.6L452,192.8c6.4,11.2,11.2,23.2,14.4,35.2H504l0,0c4,0,8,3.2,8,8v64c0,2.4-0.8,4-2.4,5.6s-3.2,2.4-5.6,2.4h-37.6
	c-3.2,12-8,24-14.4,35.2l26.4,26.4c3.2,3.2,3.2,8,0,11.2l-44.8,45.6c-1.6,1.6-4,2.4-5.6,2.4c-2.4,0-4-0.8-5.6-2.4L396,400
	c-11.2,6.4-23.2,11.2-35.2,14.4V452c0,4-3.2,8-8,8h-64l0,0c-4,0-8-4-8-8v-32H280z M40,196v208h272V156h-80c-4,0-8-4-8-8V68H40v48
	h128c4,0,8,4,8,8v64c0,4-4,8-8,8H40z M160,132H16v48h144V132z"/>
</svg>