<?xml version="1.0" encoding="iso-8859-1"?>
<!-- Uploaded to: SVG Repo, www.svgrepo.com, Generator: SVG Repo Mixer Tools -->
<svg height="800px" width="800px" version="1.1" id="Layer_1" xmlns="http://www.w3.org/2000/svg" xmlns:xlink="http://www.w3.org/1999/xlink" 
	 viewBox="0 0 512 512" xml:space="preserve">
<polygon style="fill:#5C996D;" points="423.927,78.39 409.735,5.312 40.719,78.39 40.719,238.283 423.927,238.283 "/>
<path style="fill:#CCA400;" d="M472.858,339.93v126.038c0,22.395-18.323,40.719-40.719,40.719H40.719
	C18.323,506.687,0,488.363,0,465.968v-346.86c0-22.395,18.323-40.719,40.719-40.719h188.069h86.774h116.577
	c22.395,0,40.719,18.323,40.719,40.719v85.601V339.93H472.858z"/>
<path style="opacity:0.27;fill:#891C00;enable-background:new    ;" d="M432.138,78.39h-31.804v53.798v135.22v126.038
	c0,22.395-18.323,40.719-40.719,40.719H0v31.803c0,22.396,18.323,40.719,40.719,40.719h391.42c22.395,0,40.719-18.323,40.719-40.719
	V339.93V204.71v-85.602C472.858,96.713,454.534,78.39,432.138,78.39z"/>
<path style="fill:#EEBF00;" d="M359.018,204.711H501.61c5.714,0,10.39,4.675,10.39,10.39v114.438c0,5.714-4.675,10.39-10.39,10.39
	H301.004c-5.714,0-10.39-4.675-10.39-10.39V215.101c0-5.714,4.675-10.39,10.39-10.39H359.018z"/>
<path style="opacity:0.12;fill:#891C00;enable-background:new    ;" d="M501.61,204.711h-26.272v88.165
	c0,5.714-4.675,10.39-10.39,10.39H290.614v26.273c0,5.714,4.675,10.39,10.39,10.39H501.61c5.714,0,10.39-4.675,10.39-10.39V215.101
	C512,209.386,507.325,204.711,501.61,204.711z"/>
<circle style="fill:#CCA400;" cx="362.55" cy="272.325" r="30.245"/>
<g style="opacity:0.2;">
	<path style="fill:#891C00;" d="M40.719,203.83c-4.303,0-7.792-3.488-7.792-7.792V145.55c0-18.279,14.871-33.149,33.149-33.149
		h49.254c4.303,0,7.792,3.488,7.792,7.792s-3.489,7.792-7.792,7.792H66.076c-9.685,0-17.565,7.88-17.565,17.565v50.488
		C48.512,200.341,45.023,203.83,40.719,203.83z"/>
</g>
<polygon style="fill:#376642;" points="189.029,78.39 384.049,41.128 392.794,78.39 "/>
</svg>